<svg version="1" xmlns="http://www.w3.org/2000/svg" width="682.667" height="682.667" viewBox="0 0 512.000000 512.000000"><path d="M213.9 30.5c-7.6 2.1-13.9 5.7-19.5 11.3-14.1 14.1-16.8 35.6-6.8 53 1.5 2.7 16 18.1 33.8 36 29 29.1 31.3 31.2 34.6 31.2 3.3 0 5.7-2.2 35.2-31.8 28.4-28.4 32-32.4 34.8-38.3 4.1-8.9 5.5-16.9 4.2-25.3-3.4-21.6-20.4-36.9-41.9-37.5-10.8-.3-17.8 1.9-27.5 8.7l-4.7 3.3-5.8-4c-10.9-7.4-24.6-9.9-36.4-6.6zM139.5 184.7c-52.6 4-98.8 34.1-122.8 80.3C5.5 286.3.2 308.5.2 333.5c0 18.9 2.7 35.4 8.5 51 19.5 52.2 63 88.2 117.7 97.1 10.6 1.7 33.3 1.9 43.6.4 25.4-3.9 49.9-14 69.2-28.7 6.2-4.7 6.5-4.9 12.6-10.7l4.1-3.9 5.7 4.9c17.2 14.9 28.1 21.7 46.1 29 18.9 7.6 34.3 10.3 57.3 9.9 17.2-.2 24.8-1.3 38-5 3-.9 6-1.7 6.5-1.8.6-.2 1.5-.5 2-.8.6-.4 2.8-1.2 5-1.9 6.5-2.1 26.1-12.3 31-16.2.6-.5 3.9-3.1 7.5-5.9 13.7-10.7 29.3-28.7 37.5-43.4 13.2-23.6 19.4-48.5 19-76.3-.3-15.7-.7-18.9-4-32.7-11.9-48.7-46.2-87-94.2-105.1-3.6-1.3-7.5-2.6-8.7-2.9-1.1-.2-4.1-.9-6.6-1.6-27.6-6.8-59.9-5-86.5 4.8-8.8 3.2-24.2 11.1-31.6 16-8.1 5.4-12.5 9-20.2 16.2l-3.6 3.4-4.8-4.6c-21.7-20.5-49.3-33.9-79.8-38.6-7.3-1.1-25.2-1.9-32-1.4zm31.5 28.9c22.7 4.1 44.4 14.9 61.2 30.4l6.7 6.1-2.3 3.7c-19.7 31.6-26.5 65.1-21.2 104.2 2.2 16.4 10.8 39.2 20.4 54.5l3.1 5-6.2 5.7c-24.6 22.7-54.6 33.7-88.2 32.5C86 453.5 37.9 411 28.6 353c-1.8-11.3-1.4-33.1.8-43.5 7.5-34.4 28.4-63.6 57.9-80.9 25.4-14.8 55.4-20.2 83.7-15zm208.5-1.1c41.2 6.3 74.8 30.6 92.9 67.2 9.4 18.9 12.7 34.3 12.2 56.3-.4 17.2-.6 18.6-4.2 31.5-4.6 16.2-14.3 34.2-25.3 46.7-45.3 51.9-124.6 56.3-175.3 9.8l-6.7-6.1 3.9-6.3c14.6-23.2 22.3-51.9 21.5-81.1-.7-28.1-7.3-50.9-21.8-74.9l-3.5-5.8 6.2-5.7c23.4-21.8 52.6-32.9 85.1-32.5 5.5 0 12.3.4 15 .9zM259 279.9c16.5 32.8 16.6 74.7.2 107.6l-3.4 6.9-3.5-7.4c-8.5-18.2-11.7-32.8-11.7-53.5 0-15.9 1.4-25.5 5.7-38.2 2.1-6 8.8-21.3 9.4-21.3.2 0 1.6 2.7 3.3 5.9z"/></svg>